# xmcd
#
# Track frame offsets: 
#        150
#        17112
#        33952
#        46752
#        67272
#        84255
#        95677
#        110295
#        128117
#        143587
#        158087
#
# Disc length: 2329 seconds
#
# Revision: 3
# Processed by: cddbd v1.4PL0 Copyright (c) Steve Scherf et al.
# Submitted via: ExactAudioCopy v0.95a2
#
DISCID=8609170b
DTITLE=Rosie Flores - After The Farm
DYEAR=1992
DGENRE=Country
TTITLE0=More To Offer
TTITLE1=Price You Pay
TTITLE2=Blue Highway
TTITLE3=This Loneliness
TTITLE4=Sold On You
TTITLE5=That's Me
TTITLE6=Goin' Through The Motions
TTITLE7=Oh Heartache
TTITLE8=Dream Dream Blue
TTITLE9=Dent In My Heart
TTITLE10=West Texas Plains
EXTD=
EXTT0=
EXTT1=
EXTT2=
EXTT3=
EXTT4=
EXTT5=
EXTT6=
EXTT7=
EXTT8=
EXTT9=
EXTT10=
PLAYORDER=
